<?xml version="1.0" encoding="utf-8"?>
<!-- Generator: Adobe Illustrator 26.1.0, SVG Export Plug-In . SVG Version: 6.00 Build 0)  -->
<svg version="1.1" id="Layer_1" xmlns="http://www.w3.org/2000/svg" xmlns:xlink="http://www.w3.org/1999/xlink" x="0px" y="0px"
	 viewBox="0 0 800 800" style="enable-background:new 0 0 800 800;" xml:space="preserve">
<style type="text/css">
	.st0{clip-path:url(#SVGID_00000163794513399877873500000004353143055869424011_);fill:#FFA585;}
	.st1{clip-path:url(#SVGID_00000163794513399877873500000004353143055869424011_);}
	.st2{fill:#FFB18A;}
	.st3{fill:#FFBD8E;}
	.st4{fill:#FFC993;}
	.st5{fill:#FFD597;}
	.st6{fill:#FFE19C;}
	.st7{fill:#FFEDA0;}
</style>
<g>
	<defs>
		<rect id="SVGID_1_" x="-7.4" y="3.1" width="816.6" height="796.9"/>
	</defs>
	<clipPath id="SVGID_00000061438214058516630700000011711304438242893195_">
		<use xlink:href="#SVGID_1_"  style="overflow:visible;"/>
	</clipPath>
	
		<rect x="-51.4" y="-21.2" style="clip-path:url(#SVGID_00000061438214058516630700000011711304438242893195_);fill:#FFA585;" width="889.5" height="845.4"/>
	<g style="clip-path:url(#SVGID_00000061438214058516630700000011711304438242893195_);">
		
			<image style="overflow:visible;opacity:0.75;" width="933" height="910" xlink:href="97769ECD.png"  transform="matrix(1 0 0 -0.975 -66 837.8876)">
		</image>
		<g>
			<path class="st2" d="M110,808.6c0,0,53-23.4,64-102.4s91-38,126-85.8c35-47.8,108,80,182,0s94,184.3,217,203.8h139.1V-21.2H-51.4
				v829.8H110z"/>
		</g>
	</g>
	<g style="clip-path:url(#SVGID_00000061438214058516630700000011711304438242893195_);">
		
			<image style="overflow:visible;opacity:0.75;" width="933" height="894" xlink:href="97769ECF.png"  transform="matrix(1 0 0 -0.975 -66 822.2874)">
		</image>
		<g>
			<path class="st3" d="M-27,808.6c5.6,0,14.8-7.7,19.3-10.3c16.2-9.6,32.4-19.7,47.2-31.3c40.3-31.3,75.9-73.1,90.5-121.7
				c6.3-21.1,15.4-47.2,36.6-58.2c23.7-12.4,51.8-2.3,77-3.2c35-1.2,52-29.5,75.2-50.2c17.7-15.9,48-8.4,65.1,2.8
				c20.5,13.5,41,40.1,68.3,38c49.4-3.9,81.9-80.6,137.7-42c17.2,11.9,30,40.6,35.1,59.7c6.6,24.2,5.6,50.1,14.1,73.9
				c20.5,57.4,95.9,55,146.7,48.8c17.7-2.2,35.2-5.4,52.3-10.6V-21.2H-51.4v829.8C-51.4,808.6-27,808.6-27,808.6z"/>
		</g>
	</g>
	<g style="clip-path:url(#SVGID_00000061438214058516630700000011711304438242893195_);">
		
			<image style="overflow:visible;opacity:0.75;" width="933" height="710" xlink:href="97769ECA.png"  transform="matrix(1 0 0 -0.975 -66 661.4095)">
		</image>
		<g>
			<path class="st4" d="M-19,647.1c0,0,107-51,145-137.8s116.1-137.1,202.1-45.4c86,91.7,157.4,14.6,227.9-10.1
				c96.1-33.7,120,186.8,259,193.4h23.1V-2.6H-51.4v645.5L-19,647.1z"/>
		</g>
	</g>
	<g style="clip-path:url(#SVGID_00000061438214058516630700000011711304438242893195_);">
		
			<image style="overflow:visible;opacity:0.75;" width="933" height="639" xlink:href="97769ECB.png"  transform="matrix(1 0 0 -0.975 -66 578.5331)">
		</image>
		<g>
			<path class="st5" d="M-51.4,536.6c0,0,113.4-23.4,176.4-145.3s176-65.3,261,16.6s116.2,3.1,186-13.7
				C653,374.8,689.1,601,838.1,559V-16.3H-51.4V536.6z"/>
		</g>
	</g>
	<g style="clip-path:url(#SVGID_00000061438214058516630700000011711304438242893195_);">
		
			<image style="overflow:visible;opacity:0.75;" width="933" height="552" xlink:href="97769ED5.png"  transform="matrix(1 0 0 -0.975 -66 495.6567)">
		</image>
		<g>
			<path class="st6" d="M248.6,247.4c137.2,76.3,160.4,154.6,340.5,79.7c118.8-49.4,67.5,114.8,238.5,154.3h10.5V-14.3H-51.4v462.1
				C-51.4,447.8,116.8,174.1,248.6,247.4z"/>
		</g>
	</g>
	<g style="clip-path:url(#SVGID_00000061438214058516630700000011711304438242893195_);">
		
			<image style="overflow:visible;opacity:0.75;" width="933" height="478" xlink:href="97769ED7.png"  transform="matrix(1 0 0 -0.975 -66 415.7053)">
		</image>
		<g>
			<path class="st7" d="M-51.4,336.2c0,0,190.3-265.9,327-162.3c124.4,94.3,177.2,137.5,319.5,83.3c157.5-60,97.5,109.9,243,144.9
				V-22.1H-51.4V336.2z"/>
		</g>
	</g>
</g>
</svg>
