<?xml version="1.0" encoding="utf-8"?>
<!-- Generator: Adobe Illustrator 26.1.0, SVG Export Plug-In . SVG Version: 6.00 Build 0)  -->
<svg version="1.1" id="Capa_1" xmlns="http://www.w3.org/2000/svg" xmlns:xlink="http://www.w3.org/1999/xlink" x="0px" y="0px"
	 viewBox="0 0 576 512" style="enable-background:new 0 0 576 512;" xml:space="preserve">
<style type="text/css">
	.st0{fill:#979797;stroke:#979797;stroke-miterlimit:10;}
</style>
<path class="st0" d="M566.6,54.6c12.5-12.5,12.5-32.8,0-45.3s-32.8-12.5-45.3,0l-192,192l-34.7-34.7c-4.2-4.2-10-6.6-16-6.6
	c-12.5,0-22.6,10.1-22.6,22.6v29.1L364.3,320h29.1c12.5,0,22.6-10.1,22.6-22.6c0-6-2.4-11.8-6.6-16l-34.7-34.7L566.6,54.6
	L566.6,54.6z M341.1,353.4L222.6,234.9c-42.7-3.7-85.2,11.7-115.8,42.3l-8,8c-22.3,22.3-34.8,52.5-34.8,84c0,6.8,7.1,11.2,13.2,8.2
	l51.1-25.5c5-2.5,9.5,4.1,5.4,7.9L7.3,473.4C2.7,477.6,0,483.6,0,489.9C0,502.1,9.9,512,22.1,512h173.3c38.8,0,75.9-15.4,103.4-42.8
	C329.4,438.6,344.7,396.1,341.1,353.4L341.1,353.4z"/>
</svg>
