<?xml version="1.0" encoding="utf-8"?>
<!-- Generator: Adobe Illustrator 26.1.0, SVG Export Plug-In . SVG Version: 6.00 Build 0)  -->
<svg version="1.1" id="Capa_1" xmlns="http://www.w3.org/2000/svg" xmlns:xlink="http://www.w3.org/1999/xlink" x="0px" y="0px"
	 viewBox="0 0 65 56" style="enable-background:new 0 0 65 56;" xml:space="preserve">
<style type="text/css">
	.st0{fill:#233B23;}
	.st1{fill:url(#Trazado_31053_00000026162651525013682360000018025695718976206976_);}
	.st2{fill:url(#Trazado_31054_00000124853923530851703840000009718774356858649738_);}
	.st3{fill:#81AB2E;}
</style>
<g id="Grupo_11167" transform="translate(1.661 1.661)">
	<g id="Grupo_11164">
		<path id="Trazado_31052" class="st0" d="M45.7,22.3L34.5,11.1c-2-2.1-5.4-2.1-7.4,0c0,0,0,0,0,0L15.9,22.3c-1,1-1.5,2.3-1.5,3.7
			c0,0.1,0,0.2,0,0.2v14c0,1.6,1.3,3,3,3c1.6,0,3-1.3,3-3V33h21v7.2c0,1.6,1.3,3,2.9,3.1c1.6,0,3-1.3,3.1-2.9c0,0,0-0.1,0-0.1V26
			C47.3,24.6,46.7,23.3,45.7,22.3z M20.3,27v-0.7l10.5-10.5l10.5,10.5V27L20.3,27z"/>
		<g id="Grupo_11163">
			
				<radialGradient id="Trazado_31053_00000116232686838236279390000005084426406176416423_" cx="-861.1072" cy="1075.9829" r="46.2807" gradientTransform="matrix(0.659 0 0 -0.659 -185.7664 -166.0346)" gradientUnits="userSpaceOnUse">
				<stop  offset="0" style="stop-color:#27562D"/>
				<stop  offset="1" style="stop-color:#1F321F"/>
			</radialGradient>
			<path id="Trazado_31053" style="fill:url(#Trazado_31053_00000116232686838236279390000005084426406176416423_);" d="M48.3-0.5
				h-35c-7.7,0-14,6.3-14,14v25.8c0,0.6,0,1.1,0.1,1.7l12.2-12.2v-2.5c0-0.1,0-0.1,0-0.2c0-2.1,0.8-4.2,2.3-5.7L25.2,9.2
				c3.1-3.1,8.1-3.1,11.3,0c0,0,0,0,0,0l11.2,11.2c1.5,1.5,2.3,3.5,2.3,5.6v2.8L62.2,41c0.1-0.6,0.1-1.1,0.1-1.7V13.5
				C62.3,5.7,56.1-0.5,48.3-0.5z"/>
		</g>
	</g>
	<g id="Grupo_11166" transform="translate(0.434 10.769)">
		<g id="Grupo_11165" transform="translate(0 6.908)">
			
				<radialGradient id="Trazado_31054_00000112615002501614946240000007405659761483375250_" cx="-2720.9175" cy="4525.2021" r="67.8972" gradientTransform="matrix(0.337 0 0 -0.337 -559.804 -884.4659)" gradientUnits="userSpaceOnUse">
				<stop  offset="0" style="stop-color:#C6D246"/>
				<stop  offset="1" style="stop-color:#7FAA2F"/>
			</radialGradient>
			<path id="Trazado_31054" style="fill:url(#Trazado_31054_00000112615002501614946240000007405659761483375250_);" d="M49.6,15
				v7.6c0,3.2-2.6,5.7-5.7,5.7c-3.2,0-5.7-2.6-5.7-5.7v-4.5H22.6v4.5c0.1,3.2-2.5,5.8-5.6,5.8s-5.8-2.5-5.8-5.6c0-0.1,0-0.1,0-0.2
				V15L-0.3,26.5c2,5.5,7.3,9.2,13.2,9.2h35c5.9,0,11.2-3.7,13.2-9.2L49.6,15z"/>
		</g>
		<path id="Trazado_31055" class="st3" d="M25.8,13.5L25.8,13.5l4.6-4.6l4.6,4.6H25.8"/>
	</g>
</g>
</svg>
