<?xml version="1.0" encoding="utf-8"?>
<!-- Generator: Adobe Illustrator 26.1.0, SVG Export Plug-In . SVG Version: 6.00 Build 0)  -->
<svg version="1.1" id="Capa_1" xmlns="http://www.w3.org/2000/svg" xmlns:xlink="http://www.w3.org/1999/xlink" x="0px" y="0px"
	 viewBox="0 0 130 17" style="enable-background:new 0 0 130 17;" xml:space="preserve">
<style type="text/css">
	.st0{fill:#2E3641;}
</style>
<g id="Grupo_11161" transform="translate(91.863 61.557)">
	<path id="Trazado_31037" class="st0" d="M-87.6-49.3v3.5h-3.2v-8.9c0-3.5,2.9-6.4,6.4-6.4s6.4,2.9,6.4,6.4l0,0v8.9h-3.2v-3.5H-87.6
		z M-81.2-52.5v-2.2c0-1.8-1.4-3.2-3.2-3.2c-1.8,0-3.2,1.4-3.2,3.2l0,0v2.2H-81.2z"/>
	<path id="Trazado_31038" class="st0" d="M-66.4-50l4.2,4.2l-4.5,0l-3.5-3.5l-3.1,0v3.5h-3.2v-15h7.3c3.2,0,5.7,2.5,5.7,5.7
		c0,1-0.3,2.1-0.8,3C-64.8-51.2-65.5-50.5-66.4-50z M-69.1-52.5c0.7,0,1.3-0.3,1.8-0.8c0.5-0.5,0.8-1.1,0.8-1.8
		c0-1.4-1.1-2.5-2.6-2.5h-4.1v5.1L-69.1-52.5z"/>
	<path id="Trazado_31039" class="st0" d="M-46.8-45.8v-15h9.6v3.2h-6.4v2.7h6.4v3.2h-6.4v2.7h6.4v3.2L-46.8-45.8z"/>
	<path id="Trazado_31040" class="st0" d="M-25.7-51.8v-9h3.2v15h-2.5l-7-9v9h-3.2v-15h2.5L-25.7-51.8z"/>
	<g id="Grupo_11153" transform="translate(70.621 0.364)">
		<path id="Trazado_31041" class="st0" d="M-83.5-61.1c3.2,0,5.7,2.6,5.6,5.8c0,3.1-2.5,5.6-5.6,5.6h-4.1v3.5h-3.2v-14.9H-83.5z
			 M-83.5-52.9c1.4,0,2.5-1.1,2.5-2.5s-1.1-2.5-2.5-2.5h-4.1v5.1L-83.5-52.9z"/>
	</g>
	<g id="Grupo_11154" transform="translate(85.038 0.364)">
		<path id="Trazado_31042" class="st0" d="M-80.8-50.4l4.2,4.2l-4.5,0l-3.5-3.5l-3.1,0v3.5h-3.2v-14.9h7.3c3.2,0,5.7,2.5,5.7,5.7
			c0,1-0.3,2.1-0.8,2.9C-79.1-51.6-79.9-50.9-80.8-50.4z M-83.5-52.9c1.4,0,2.5-1.1,2.5-2.5s-1.1-2.5-2.5-2.5h-4.1v5.1L-83.5-52.9z"
			/>
	</g>
	<g id="Grupo_11155" transform="translate(99.514 0.044)">
		<path id="Trazado_31043" class="st0" d="M-83.7-61.1c1.9,0,3.8,0.8,5,2.3c2.8,3.1,2.8,7.9,0,11c-2.5,2.8-6.7,3-9.5,0.6
			c-0.2-0.2-0.4-0.4-0.6-0.6c-2.8-3.2-2.8-7.9,0-11C-87.5-60.3-85.6-61.1-83.7-61.1z M-83.7-58.1c-1.1,0-2.1,0.5-2.7,1.4
			c-0.7,1-1.1,2.2-1.1,3.4c0,1.2,0.3,2.4,1.1,3.4c0.6,0.9,1.6,1.4,2.7,1.4c1.1,0,2.1-0.5,2.7-1.4c0.7-1,1.1-2.2,1.1-3.4
			c0-1.2-0.3-2.4-1.1-3.4C-81.6-57.6-82.6-58.1-83.7-58.1z"/>
	</g>
	<g id="Grupo_11156" transform="translate(114.826 0.364)">
		<path id="Trazado_31044" class="st0" d="M-83.5-61.1c3.2,0,5.7,2.6,5.6,5.8c0,3.1-2.5,5.6-5.6,5.6h-4.1v3.5h-3.2v-14.9H-83.5z
			 M-83.5-52.9c1.4,0,2.5-1.1,2.5-2.5s-1.1-2.5-2.5-2.5h-4.1v5.1L-83.5-52.9z"/>
	</g>
	<path id="Trazado_31047" class="st0" d="M-51.6-50.9h-3.1v-2.6h6.1v5.4c0,0.4-1.6,1.5-2.6,2c-1,0.4-2.1,0.7-3.3,0.6
		c-2.1,0-4-0.8-5.5-2.3c-3-3-3-8,0-11c0,0,0,0,0,0c1.4-1.5,3.4-2.3,5.5-2.3c1.1,0,2.3,0.2,3.3,0.7c1,0.5,1.9,1.2,2.6,2l-1.5,2
		c-0.5-0.5-1.1-0.9-1.7-1.1c-0.6-0.3-1.4-0.4-2.1-0.5c-1.3,0-2.6,0.5-3.5,1.3c-1.8,1.6-2,4.4-0.3,6.3c0.1,0.1,0.2,0.2,0.3,0.3
		c1.5,1.3,3.6,1.7,5.4,0.9C-51.2-49.4-51.6-50.9-51.6-50.9z"/>
</g>
</svg>
