<?xml version="1.0" encoding="utf-8"?>
<!-- Generator: Adobe Illustrator 26.1.0, SVG Export Plug-In . SVG Version: 6.00 Build 0)  -->
<svg version="1.1" id="Capa_1" xmlns="http://www.w3.org/2000/svg" xmlns:xlink="http://www.w3.org/1999/xlink" x="0px" y="0px"
	 viewBox="0 0 102 40" style="enable-background:new 0 0 102 40;" xml:space="preserve">
<style type="text/css">
	.st0{fill:#002E6D;}
</style>
<g>
	<path class="st0" d="M4.2,10.1v8.6H0.8v-7.9C0.8,6.9,2.8,5,6.6,5c1.7,0,3,0.4,4,1.1c1-0.7,2.3-1.1,4-1.1c3.8,0,5.7,1.9,5.7,5.7v7.9
		h-1.7c-1.1-0.1-1.7-0.6-1.7-1.7v-6.9C16.8,8.7,16,8,14.5,8s-2.2,0.7-2.3,2.1v8.5H8.8v-8.6C8.8,8.7,8,8,6.5,8C5,8,4.3,8.7,4.2,10.1z
		"/>
	<path class="st0" d="M36.7,11.8C36.8,7.4,39,5,43.4,5h1v3.5l-1.6,0c-1.9,0-2.8,1.2-2.8,3.2v7h-3.4V11.8z"/>
	<path class="st0" d="M63.3,9.2h-3.1c0.1-2.6,1.4-4.3,5.2-4.3c3.7,0,5.6,1.2,5.6,3.7v4.6c0,3.7-2.2,5.3-5.8,5.6
		c-3.2,0.3-5.4-1.2-5.4-4.2c0.1-3.2,2.4-4.1,5.8-4.4c1.4-0.2,2.2-0.6,2.2-1.3c-0.1-0.8-0.8-1.1-2.2-1.1C63.9,7.6,63.4,8.6,63.3,9.2z
		 M67.7,13v-1.1c-0.8,0.3-1.7,0.5-2.7,0.7c-1.3,0.3-2,0.9-2,1.9c0.1,1.1,0.6,1.6,1.7,1.6C66.6,16,67.7,14.9,67.7,13z"/>
	<path class="st0" d="M85.4,0.7v12.1c0,4-2.1,6-6.3,6c-4.1-0.1-6.2-2.3-6.2-6.8c0-4.6,1.8-6.9,5.3-7c1.7,0,3,0.7,3.8,2.1V2.8l0-0.4
		C83.2,0.8,85.4,0.7,85.4,0.7z M76.4,11.9c0,2.7,0.9,4.1,2.8,4.1c1.9,0,2.9-1.4,2.9-4.1C82,9.3,81.1,8,79.3,8
		C77.4,8,76.5,9.3,76.4,11.9z"/>
	<path class="st0" d="M25.6,20.7h0.9v17.8h-3.4V22.9C23.1,22.4,24.1,20.7,25.6,20.7z"/>
	<path class="st0" d="M43.9,24.7c-1.7,0-2.9,0.7-3.8,2.1v-6h-0.4c-1.7,0-2.6,0.9-3,1.7v-0.1v10.2c0,4,2.1,6,6.3,6
		c4.1-0.1,6.2-2.3,6.2-6.8C49.2,27.1,47.4,24.8,43.9,24.7z M42.9,35.6c-1.9,0-2.8-1.4-2.8-4.1c0.1-2.6,1-3.9,2.9-3.9
		c1.8,0,2.8,1.3,2.8,3.9C45.8,34.3,44.8,35.6,42.9,35.6z"/>
	<path class="st0" d="M26.2,15.3c0.5,0.5,1.3,0.8,2.3,0.8c0.7,0,1.3-0.2,1.9-0.5c0.5-0.4,0.8-0.7,1-1.1h3.2
		c-0.5,1.6-1.3,2.7-2.3,3.4c-1,0.7-2.3,1-3.8,1c-1,0-1.9-0.2-2.8-0.5c-0.8-0.3-1.5-0.8-2.1-1.4c-0.6-0.6-1-1.3-1.3-2.2
		c-0.3-0.8-0.5-1.8-0.5-2.8c0-1,0.2-1.9,0.5-2.7C22.6,8.3,23,7.6,23.6,7c0.6-0.6,1.3-1.1,2.1-1.5C26.5,5.1,27.4,5,28.4,5
		c1.1,0,2.1,0.2,2.9,0.6c0.8,0.4,1.5,1,2,1.7c0.5,0.7,0.9,1.5,1.1,2.5c0.2,0.9,0.3,1.9,0.2,2.9h-9.4C25.4,13.9,25.7,14.7,26.2,15.3z
		 M30.3,8.4c-0.4-0.5-1.1-0.7-2-0.7c-0.6,0-1,0.1-1.4,0.3c-0.4,0.2-0.7,0.4-0.9,0.7c-0.2,0.3-0.4,0.6-0.5,0.9
		c-0.1,0.3-0.1,0.6-0.2,0.9h5.8C31,9.5,30.7,8.9,30.3,8.4z"/>
	<path class="st0" d="M52,7.6c-0.6,0-1.1,0.1-1.4,0.4c-0.4,0.3-0.7,0.6-1,1c-0.2,0.4-0.4,0.9-0.5,1.4c-0.1,0.5-0.2,1-0.2,1.5
		c0,0.5,0.1,1,0.2,1.5c0.1,0.5,0.3,0.9,0.5,1.3c0.2,0.4,0.5,0.7,0.9,1c0.4,0.3,0.9,0.4,1.4,0.4c0.9,0,1.5-0.2,2-0.7
		c0.5-0.5,0.8-1.1,0.9-1.9h3.5c-0.2,1.8-0.9,3.1-2,4c-1.1,0.9-2.6,1.4-4.3,1.4c-1,0-1.9-0.2-2.7-0.5c-0.8-0.3-1.5-0.8-2.1-1.4
		c-0.6-0.6-1-1.3-1.4-2.1c-0.3-0.8-0.5-1.7-0.5-2.7c0-1,0.1-2,0.4-2.8c0.3-0.9,0.7-1.6,1.3-2.3c0.6-0.6,1.3-1.1,2.1-1.5
		C50,5.1,51,4.9,52,4.9c0.8,0,1.5,0.1,2.3,0.3c0.7,0.2,1.4,0.5,1.9,0.9c0.6,0.4,1,0.9,1.4,1.6c0.4,0.6,0.6,1.4,0.6,2.2h-3.5
		C54.4,8.4,53.6,7.6,52,7.6z"/>
	<path class="st0" d="M88,9c0.3-0.9,0.8-1.6,1.4-2.2c0.6-0.6,1.3-1.1,2.1-1.4c0.8-0.3,1.8-0.5,2.8-0.5c1,0,2,0.2,2.8,0.5
		c0.8,0.3,1.6,0.8,2.2,1.4c0.6,0.6,1.1,1.3,1.4,2.2c0.3,0.9,0.5,1.8,0.5,2.9c0,1.1-0.2,2-0.5,2.9c-0.3,0.9-0.8,1.6-1.4,2.2
		c-0.6,0.6-1.3,1.1-2.2,1.4c-0.8,0.3-1.8,0.5-2.8,0.5c-1,0-2-0.2-2.8-0.5c-0.8-0.3-1.5-0.8-2.1-1.4c-0.6-0.6-1-1.3-1.4-2.2
		s-0.5-1.8-0.5-2.9C87.5,10.8,87.7,9.9,88,9z M91.3,13.4c0.1,0.5,0.3,1,0.5,1.4c0.2,0.4,0.6,0.7,1,1c0.4,0.2,0.9,0.4,1.5,0.4
		s1.1-0.1,1.5-0.4c0.4-0.2,0.7-0.6,1-1c0.2-0.4,0.4-0.9,0.5-1.4c0.1-0.5,0.2-1,0.2-1.5c0-0.5-0.1-1-0.2-1.6c-0.1-0.5-0.3-1-0.5-1.4
		c-0.2-0.4-0.6-0.7-1-1c-0.4-0.2-0.9-0.4-1.5-0.4c-0.6,0-1.1,0.1-1.5,0.4c-0.4,0.2-0.7,0.6-1,1c-0.2,0.4-0.4,0.8-0.5,1.4
		c-0.1,0.5-0.2,1-0.2,1.6C91.1,12.4,91.2,12.9,91.3,13.4z"/>
	<path class="st0" d="M51.2,31.5c0.1-4.3,2.2-6.7,6.7-6.7h1v3.5l-1.6,0c-1.9,0-2.8,1.2-2.8,3.2v7h-3.4V31.5z"/>
	<path class="st0" d="M64.2,35c0.5,0.5,1.3,0.8,2.3,0.8c0.7,0,1.3-0.2,1.9-0.5c0.5-0.4,0.8-0.7,1-1.1h3.1c-0.5,1.6-1.3,2.7-2.3,3.4
		c-1,0.7-2.3,1-3.8,1c-1,0-1.9-0.2-2.8-0.5c-0.8-0.3-1.5-0.8-2.1-1.4c-0.6-0.6-1-1.3-1.3-2.2c-0.3-0.8-0.5-1.8-0.5-2.8
		c0-1,0.2-1.9,0.5-2.7c0.3-0.8,0.8-1.6,1.4-2.2c0.6-0.6,1.3-1.1,2.1-1.5c0.8-0.4,1.7-0.5,2.7-0.5c1.1,0,2.1,0.2,2.9,0.6
		c0.8,0.4,1.5,1,2,1.7c0.5,0.7,0.9,1.5,1.1,2.5c0.2,0.9,0.3,1.9,0.3,2.9h-9.4C63.4,33.7,63.7,34.5,64.2,35z M68.3,28.2
		c-0.4-0.5-1.1-0.7-2-0.7c-0.6,0-1,0.1-1.4,0.3c-0.4,0.2-0.7,0.4-0.9,0.7c-0.2,0.3-0.4,0.6-0.5,0.9c-0.1,0.3-0.1,0.6-0.2,0.9h5.8
		C69,29.3,68.7,28.6,68.3,28.2z"/>
	<path class="st0" d="M30.1,20.7h3.4v3.1h-3.4V20.7z"/>
	<path class="st0" d="M30.1,25.3h3.4v13.1h-3.4V25.3z"/>
</g>
</svg>
