<?xml version="1.0" encoding="UTF-8"?>
<svg xmlns="http://www.w3.org/2000/svg" xmlns:xlink="http://www.w3.org/1999/xlink" width="176px" height="50px" viewBox="0 0 177 50" version="1.1">
<g id="surface1">
<path style=" stroke:none;fill-rule:nonzero;fill:rgb(0%,18.039216%,42.745098%);fill-opacity:1;" d="M 62.625 23.796875 C 62.625 13.238281 49.550781 4.632812 33.425781 4.632812 C 17.296875 4.632812 4.222656 13.238281 4.222656 23.796875 C 4.222656 24.070312 4.222656 24.824219 4.222656 24.917969 C 4.222656 36.121094 15.648438 45.195312 33.421875 45.195312 C 51.304688 45.195312 62.625 36.125 62.625 24.921875 C 62.625 24.535156 62.625 24.308594 62.625 23.796875 Z M 62.625 23.796875 "/>
<path style=" stroke:none;fill-rule:nonzero;fill:rgb(100%,90.980392%,0%);fill-opacity:1;" d="M 61.507812 23.789062 C 61.507812 33.746094 48.9375 41.816406 33.429688 41.816406 C 17.921875 41.816406 5.351562 33.746094 5.351562 23.789062 C 5.351562 13.835938 17.921875 5.761719 33.429688 5.761719 C 48.9375 5.761719 61.507812 13.835938 61.507812 23.789062 Z M 61.507812 23.789062 "/>
<path style=" stroke:none;fill-rule:nonzero;fill:rgb(100%,100%,100%);fill-opacity:1;" d="M 24.105469 18.105469 C 24.09375 18.132812 23.8125 18.425781 23.992188 18.65625 C 24.4375 19.226562 25.804688 19.550781 27.1875 19.238281 C 28.015625 19.054688 29.066406 18.210938 30.089844 17.394531 C 31.199219 16.511719 32.300781 15.625 33.40625 15.273438 C 34.578125 14.902344 35.328125 15.0625 35.824219 15.210938 C 36.367188 15.375 37.007812 15.730469 38.027344 16.5 C 39.949219 17.949219 47.675781 24.714844 49.007812 25.886719 C 50.082031 25.398438 54.859375 23.335938 61.351562 21.898438 C 60.789062 18.425781 58.683594 15.25 55.492188 12.644531 C 51.039062 14.519531 45.601562 15.5 40.285156 12.894531 C 40.257812 12.882812 37.378906 11.515625 34.539062 11.582031 C 30.320312 11.679688 28.492188 13.511719 26.554688 15.453125 Z M 24.105469 18.105469 "/>
<path style=" stroke:none;fill-rule:nonzero;fill:rgb(100%,100%,100%);fill-opacity:1;" d="M 48.695312 26.625 C 48.601562 26.542969 39.609375 18.644531 37.574219 17.109375 C 36.394531 16.222656 35.738281 15.996094 35.050781 15.910156 C 34.691406 15.863281 34.195312 15.929688 33.851562 16.023438 C 32.902344 16.285156 31.664062 17.117188 30.566406 17.992188 C 29.425781 18.902344 28.351562 19.757812 27.351562 19.980469 C 26.082031 20.269531 24.523438 19.929688 23.816406 19.449219 C 23.527344 19.257812 23.328125 19.03125 23.230469 18.804688 C 22.96875 18.191406 23.453125 17.707031 23.53125 17.625 L 26.011719 14.929688 C 26.300781 14.640625 26.589844 14.355469 26.886719 14.070312 C 26.085938 14.175781 25.347656 14.378906 24.625 14.582031 C 23.726562 14.835938 22.863281 15.074219 21.988281 15.074219 C 21.621094 15.074219 19.664062 14.753906 19.292969 14.652344 C 17.046875 14.035156 15.078125 13.433594 12.132812 12.058594 C 8.605469 14.691406 6.246094 17.988281 5.566406 21.617188 C 6.070312 21.753906 6.886719 21.996094 7.230469 22.074219 C 15.214844 23.847656 17.699219 25.683594 18.152344 26.066406 C 18.636719 25.523438 19.34375 25.175781 20.128906 25.175781 C 21.011719 25.175781 21.808594 25.625 22.292969 26.3125 C 22.75 25.949219 23.378906 25.640625 24.195312 25.640625 C 24.566406 25.640625 24.949219 25.710938 25.339844 25.84375 C 26.238281 26.152344 26.703125 26.753906 26.945312 27.296875 C 27.25 27.160156 27.621094 27.058594 28.058594 27.058594 C 28.488281 27.058594 28.9375 27.160156 29.382812 27.355469 C 30.855469 27.988281 31.085938 29.441406 30.953125 30.535156 C 31.058594 30.519531 31.160156 30.515625 31.269531 30.515625 C 33.015625 30.515625 34.433594 31.941406 34.433594 33.691406 C 34.433594 34.234375 34.296875 34.746094 34.058594 35.191406 C 34.53125 35.460938 35.742188 36.066406 36.804688 35.933594 C 37.65625 35.824219 37.976562 35.535156 38.09375 35.371094 C 38.171875 35.257812 38.257812 35.125 38.179688 35.03125 L 35.929688 32.523438 C 35.929688 32.523438 35.554688 32.171875 35.679688 32.035156 C 35.808594 31.894531 36.035156 32.09375 36.199219 32.230469 C 37.34375 33.191406 38.742188 34.640625 38.742188 34.640625 C 38.765625 34.652344 38.859375 34.839844 39.375 34.933594 C 39.820312 35.011719 40.609375 34.964844 41.15625 34.519531 C 41.292969 34.40625 41.433594 34.261719 41.546875 34.117188 C 41.539062 34.121094 41.53125 34.132812 41.523438 34.136719 C 42.097656 33.394531 41.460938 32.648438 41.460938 32.648438 L 38.828125 29.683594 C 38.828125 29.683594 38.453125 29.335938 38.582031 29.195312 C 38.695312 29.074219 38.9375 29.253906 39.101562 29.394531 C 39.933594 30.09375 41.109375 31.277344 42.238281 32.382812 C 42.457031 32.546875 43.449219 33.160156 44.761719 32.296875 C 45.558594 31.769531 45.71875 31.128906 45.695312 30.640625 C 45.640625 30 45.136719 29.539062 45.136719 29.539062 L 41.542969 25.917969 C 41.542969 25.917969 41.164062 25.589844 41.300781 25.425781 C 41.410156 25.289062 41.65625 25.484375 41.816406 25.621094 C 42.960938 26.582031 46.058594 29.433594 46.058594 29.433594 C 46.105469 29.460938 47.175781 30.226562 48.5 29.382812 C 48.972656 29.078125 49.273438 28.621094 49.300781 28.089844 C 49.34375 27.171875 48.695312 26.625 48.695312 26.625 Z M 48.695312 26.625 "/>
<path style=" stroke:none;fill-rule:nonzero;fill:rgb(100%,100%,100%);fill-opacity:1;" d="M 31.269531 31.214844 C 30.714844 31.210938 30.101562 31.542969 30.023438 31.492188 C 29.980469 31.460938 30.054688 31.238281 30.109375 31.109375 C 30.160156 30.980469 30.894531 28.765625 29.105469 27.996094 C 27.738281 27.40625 26.902344 28.070312 26.613281 28.367188 C 26.539062 28.449219 26.503906 28.441406 26.496094 28.339844 C 26.46875 27.945312 26.289062 26.863281 25.109375 26.503906 C 23.421875 25.984375 22.335938 27.164062 22.058594 27.59375 C 21.933594 26.625 21.125 25.878906 20.128906 25.878906 C 19.046875 25.878906 18.167969 26.757812 18.164062 27.84375 C 18.164062 28.929688 19.042969 29.8125 20.125 29.8125 C 20.648438 29.8125 21.128906 29.601562 21.476562 29.261719 C 21.488281 29.273438 21.496094 29.289062 21.488281 29.328125 C 21.40625 29.8125 21.253906 31.582031 23.097656 32.296875 C 23.839844 32.585938 24.464844 32.375 24.988281 32.007812 C 25.144531 31.894531 25.171875 31.941406 25.148438 32.089844 C 25.082031 32.542969 25.164062 33.515625 26.523438 34.070312 C 27.558594 34.492188 28.171875 34.058594 28.574219 33.6875 C 28.746094 33.527344 28.796875 33.554688 28.804688 33.800781 C 28.851562 35.117188 29.941406 36.160156 31.265625 36.160156 C 32.625 36.160156 33.730469 35.058594 33.730469 33.691406 C 33.734375 32.328125 32.632812 31.234375 31.269531 31.214844 Z M 31.269531 31.214844 "/>
<path style=" stroke:none;fill-rule:nonzero;fill:rgb(0%,18.039216%,42.745098%);fill-opacity:1;" d="M 49.039062 25.675781 C 46.269531 23.25 39.867188 17.664062 38.136719 16.359375 C 37.144531 15.609375 36.46875 15.214844 35.875 15.039062 C 35.609375 14.960938 35.238281 14.867188 34.765625 14.867188 C 34.328125 14.867188 33.851562 14.945312 33.359375 15.101562 C 32.238281 15.457031 31.121094 16.347656 30.042969 17.210938 L 29.988281 17.253906 C 28.980469 18.054688 27.941406 18.886719 27.15625 19.0625 C 26.8125 19.140625 26.460938 19.179688 26.105469 19.179688 C 25.226562 19.179688 24.433594 18.925781 24.136719 18.546875 C 24.085938 18.484375 24.121094 18.378906 24.234375 18.234375 L 24.246094 18.214844 L 26.683594 15.582031 C 28.589844 13.664062 30.394531 11.859375 34.542969 11.761719 C 34.613281 11.757812 34.679688 11.757812 34.75 11.757812 C 37.332031 11.761719 39.914062 12.921875 40.203125 13.054688 C 42.625 14.238281 45.128906 14.839844 47.640625 14.84375 C 50.257812 14.84375 52.960938 14.195312 55.800781 12.878906 C 55.484375 12.613281 55.152344 12.351562 54.8125 12.09375 C 52.316406 13.179688 49.941406 13.730469 47.644531 13.730469 C 45.300781 13.726562 42.957031 13.164062 40.6875 12.050781 C 40.566406 11.992188 37.714844 10.644531 34.746094 10.644531 C 34.671875 10.644531 34.589844 10.644531 34.511719 10.644531 C 31.027344 10.726562 29.066406 11.972656 27.746094 13.058594 C 26.460938 13.089844 25.351562 13.402344 24.363281 13.679688 C 23.484375 13.921875 22.726562 14.136719 21.984375 14.136719 C 21.679688 14.136719 21.132812 14.109375 21.082031 14.105469 C 20.230469 14.082031 15.9375 13.023438 12.523438 11.726562 C 12.175781 11.972656 11.839844 12.226562 11.515625 12.492188 C 15.082031 13.957031 19.421875 15.089844 20.792969 15.183594 C 21.171875 15.207031 21.582031 15.25 21.988281 15.25 C 22.894531 15.25 23.796875 14.996094 24.671875 14.753906 C 25.191406 14.605469 25.761719 14.449219 26.359375 14.332031 C 26.199219 14.488281 26.039062 14.648438 25.882812 14.8125 L 23.40625 17.5 C 23.210938 17.695312 22.789062 18.222656 23.066406 18.871094 C 23.175781 19.132812 23.402344 19.382812 23.714844 19.597656 C 24.308594 19.996094 25.359375 20.265625 26.34375 20.265625 C 26.714844 20.265625 27.066406 20.230469 27.390625 20.15625 C 28.429688 19.921875 29.519531 19.050781 30.671875 18.132812 C 31.589844 17.398438 32.894531 16.46875 33.898438 16.195312 C 34.175781 16.117188 34.519531 16.070312 34.792969 16.070312 C 34.875 16.070312 34.953125 16.074219 35.027344 16.085938 C 35.6875 16.171875 36.328125 16.394531 37.464844 17.253906 C 39.496094 18.785156 48.492188 26.683594 48.582031 26.757812 C 48.585938 26.765625 49.160156 27.261719 49.121094 28.085938 C 49.097656 28.542969 48.84375 28.953125 48.402344 29.234375 C 48.015625 29.480469 47.621094 29.601562 47.222656 29.601562 C 46.621094 29.601562 46.207031 29.320312 46.179688 29.300781 C 46.148438 29.273438 43.066406 26.4375 41.933594 25.484375 C 41.75 25.335938 41.578125 25.203125 41.398438 25.203125 C 41.304688 25.203125 41.21875 25.242188 41.164062 25.3125 C 40.984375 25.53125 41.1875 25.835938 41.421875 26.039062 L 45.019531 29.667969 C 45.027344 29.675781 45.46875 30.09375 45.519531 30.648438 C 45.546875 31.25 45.257812 31.75 44.664062 32.144531 C 44.242188 32.421875 43.808594 32.566406 43.386719 32.566406 C 42.835938 32.566406 42.445312 32.3125 42.363281 32.253906 L 41.84375 31.742188 C 40.902344 30.808594 39.925781 29.847656 39.214844 29.25 C 39.039062 29.105469 38.851562 28.972656 38.675781 28.972656 C 38.589844 28.972656 38.511719 29.003906 38.453125 29.066406 C 38.367188 29.160156 38.3125 29.320312 38.515625 29.59375 C 38.601562 29.703125 38.699219 29.796875 38.699219 29.796875 L 41.328125 32.757812 C 41.347656 32.785156 41.871094 33.402344 41.386719 34.023438 L 41.292969 34.140625 C 41.214844 34.230469 41.128906 34.308594 41.050781 34.375 C 40.601562 34.746094 40.003906 34.785156 39.765625 34.785156 C 39.640625 34.785156 39.515625 34.773438 39.410156 34.753906 C 39.152344 34.707031 38.980469 34.636719 38.894531 34.53125 L 38.863281 34.5 C 38.71875 34.351562 37.394531 32.996094 36.300781 32.074219 C 36.15625 31.953125 35.976562 31.800781 35.789062 31.800781 C 35.695312 31.800781 35.613281 31.835938 35.550781 31.90625 C 35.332031 32.144531 35.660156 32.5 35.796875 32.632812 L 38.039062 35.113281 C 38.035156 35.132812 38.007812 35.1875 37.953125 35.265625 C 37.875 35.375 37.601562 35.648438 36.789062 35.75 C 36.691406 35.761719 36.589844 35.765625 36.492188 35.765625 C 35.652344 35.765625 34.761719 35.359375 34.300781 35.113281 C 34.507812 34.667969 34.617188 34.179688 34.617188 33.6875 C 34.617188 31.835938 33.121094 30.332031 31.277344 30.328125 C 31.238281 30.328125 31.199219 30.332031 31.15625 30.332031 C 31.21875 29.488281 31.097656 27.886719 29.460938 27.183594 C 28.992188 26.980469 28.519531 26.875 28.0625 26.875 C 27.707031 26.875 27.363281 26.9375 27.039062 27.058594 C 26.703125 26.398438 26.136719 25.917969 25.40625 25.664062 C 25 25.523438 24.597656 25.453125 24.207031 25.453125 C 23.527344 25.453125 22.898438 25.65625 22.335938 26.050781 C 21.800781 25.382812 20.992188 24.984375 20.136719 24.984375 C 19.390625 24.984375 18.675781 25.289062 18.144531 25.816406 C 17.445312 25.28125 14.679688 23.515625 7.277344 21.828125 C 6.917969 21.75 6.09375 21.511719 5.589844 21.363281 C 5.507812 21.765625 5.445312 22.171875 5.398438 22.582031 C 5.398438 22.582031 6.765625 22.914062 7.035156 22.972656 C 14.597656 24.65625 17.09375 26.410156 17.519531 26.742188 C 17.375 27.085938 17.300781 27.460938 17.300781 27.835938 C 17.300781 29.402344 18.570312 30.679688 20.136719 30.683594 C 20.3125 30.683594 20.484375 30.667969 20.65625 30.636719 C 20.890625 31.789062 21.644531 32.664062 22.792969 33.113281 C 23.128906 33.242188 23.46875 33.308594 23.804688 33.308594 C 24.019531 33.308594 24.234375 33.28125 24.449219 33.230469 C 24.664062 33.769531 25.140625 34.445312 26.207031 34.878906 C 26.582031 35.03125 26.957031 35.113281 27.320312 35.113281 C 27.617188 35.113281 27.910156 35.058594 28.1875 34.957031 C 28.699219 36.210938 29.917969 37.039062 31.273438 37.039062 C 32.175781 37.039062 33.039062 36.671875 33.667969 36.019531 C 34.207031 36.320312 35.347656 36.867188 36.496094 36.867188 C 36.644531 36.867188 36.785156 36.859375 36.925781 36.839844 C 38.070312 36.695312 38.601562 36.246094 38.84375 35.898438 C 38.890625 35.839844 38.925781 35.777344 38.964844 35.707031 C 39.234375 35.785156 39.53125 35.847656 39.867188 35.847656 C 40.492188 35.847656 41.089844 35.632812 41.699219 35.191406 C 42.292969 34.761719 42.714844 34.144531 42.777344 33.617188 C 42.777344 33.613281 42.78125 33.605469 42.78125 33.597656 C 42.980469 33.636719 43.183594 33.660156 43.390625 33.660156 C 44.03125 33.660156 44.664062 33.457031 45.269531 33.0625 C 46.433594 32.292969 46.636719 31.292969 46.617188 30.640625 C 46.820312 30.683594 47.027344 30.707031 47.234375 30.707031 C 47.835938 30.707031 48.433594 30.523438 48.996094 30.160156 C 49.71875 29.699219 50.152344 28.988281 50.21875 28.160156 C 50.265625 27.601562 50.125 27.035156 49.832031 26.550781 C 51.78125 25.703125 56.246094 24.070312 61.496094 22.882812 C 61.46875 22.476562 61.40625 22.074219 61.335938 21.667969 C 54.972656 23.085938 50.230469 25.144531 49.039062 25.675781 Z M 31.269531 35.984375 C 30.035156 35.984375 29.03125 35.023438 28.984375 33.796875 C 28.984375 33.691406 28.972656 33.410156 28.734375 33.410156 C 28.636719 33.410156 28.554688 33.46875 28.457031 33.554688 C 28.183594 33.808594 27.839844 34.0625 27.335938 34.0625 C 27.105469 34.0625 26.855469 34.011719 26.59375 33.902344 C 25.289062 33.371094 25.273438 32.476562 25.324219 32.113281 C 25.339844 32.015625 25.34375 31.917969 25.277344 31.835938 L 25.199219 31.765625 L 25.117188 31.765625 C 25.050781 31.765625 24.980469 31.792969 24.890625 31.859375 C 24.511719 32.125 24.152344 32.253906 23.785156 32.253906 C 23.582031 32.253906 23.375 32.214844 23.164062 32.132812 C 21.449219 31.460938 21.585938 29.835938 21.667969 29.347656 C 21.683594 29.246094 21.65625 29.167969 21.59375 29.121094 L 21.472656 29.019531 L 21.359375 29.132812 C 21.023438 29.453125 20.585938 29.632812 20.128906 29.632812 C 19.144531 29.632812 18.34375 28.828125 18.34375 27.839844 C 18.34375 26.851562 19.144531 26.054688 20.128906 26.054688 C 21.019531 26.054688 21.777344 26.726562 21.886719 27.613281 L 21.949219 28.09375 L 22.210938 27.691406 C 22.242188 27.644531 22.957031 26.550781 24.285156 26.550781 C 24.535156 26.550781 24.796875 26.589844 25.058594 26.671875 C 26.113281 26.992188 26.292969 27.953125 26.320312 28.355469 C 26.339844 28.589844 26.507812 28.597656 26.539062 28.597656 C 26.628906 28.597656 26.699219 28.539062 26.746094 28.492188 C 26.945312 28.285156 27.378906 27.933594 28.058594 27.933594 C 28.367188 27.933594 28.699219 28.011719 29.039062 28.15625 C 30.71875 28.878906 29.957031 31.015625 29.949219 31.039062 C 29.804688 31.394531 29.800781 31.550781 29.933594 31.640625 L 30 31.671875 L 30.046875 31.671875 C 30.125 31.671875 30.21875 31.640625 30.371094 31.585938 C 30.601562 31.507812 30.945312 31.386719 31.265625 31.386719 C 32.53125 31.402344 33.554688 32.433594 33.554688 33.683594 C 33.558594 34.957031 32.53125 35.984375 31.269531 35.984375 Z M 31.269531 35.984375 "/>
<path style=" stroke:none;fill-rule:nonzero;fill:rgb(0%,18.039216%,42.745098%);fill-opacity:1;" d="M 74.375 13.234375 L 74.375 21.851562 L 70.945312 21.851562 L 70.945312 13.921875 C 70.945312 10.070312 72.875 8.15625 76.710938 8.15625 C 78.441406 8.15625 79.761719 8.542969 80.726562 9.304688 C 81.695312 8.566406 83.015625 8.210938 84.742188 8.210938 C 88.582031 8.210938 90.484375 10.125 90.460938 13.972656 L 90.460938 21.90625 L 88.707031 21.90625 C 87.589844 21.828125 87.03125 21.292969 87.03125 20.21875 L 87.03125 13.28125 C 86.953125 11.878906 86.191406 11.191406 84.691406 11.191406 C 83.191406 11.191406 82.429688 11.878906 82.40625 13.28125 L 82.40625 21.851562 L 79 21.851562 L 79 13.234375 C 78.921875 11.832031 78.160156 11.144531 76.660156 11.144531 C 75.167969 11.144531 74.402344 11.832031 74.375 13.234375 Z M 74.375 13.234375 "/>
<path style=" stroke:none;fill-rule:nonzero;fill:rgb(0%,18.039216%,42.745098%);fill-opacity:1;" d="M 107.035156 14.941406 C 107.136719 10.582031 109.28125 8.15625 113.78125 8.15625 L 114.804688 8.15625 L 114.804688 11.675781 L 113.230469 11.707031 C 111.351562 11.707031 110.464844 12.925781 110.464844 14.890625 L 110.464844 21.90625 L 107.035156 21.90625 Z M 107.035156 14.941406 "/>
<path style=" stroke:none;fill-rule:nonzero;fill:rgb(0%,18.039216%,42.745098%);fill-opacity:1;" d="M 133.726562 12.386719 L 130.578125 12.386719 C 130.699219 9.777344 132.007812 8.042969 135.847656 8.042969 C 139.554688 8.042969 141.4375 9.265625 141.515625 11.765625 L 141.515625 16.355469 C 141.515625 20.078125 139.277344 21.734375 135.644531 21.988281 C 132.417969 22.242188 130.179688 20.742188 130.179688 17.757812 C 130.257812 14.515625 132.59375 13.648438 136 13.320312 C 137.449219 13.140625 138.183594 12.707031 138.183594 11.96875 C 138.109375 11.203125 137.398438 10.839844 136 10.820312 C 134.414062 10.800781 133.90625 11.75 133.726562 12.386719 Z M 138.234375 16.203125 L 138.234375 15.097656 C 137.449219 15.429688 136.53125 15.5625 135.539062 15.769531 C 134.195312 16.023438 133.507812 16.660156 133.507812 17.65625 C 133.585938 18.726562 134.144531 19.234375 135.210938 19.234375 C 137.089844 19.238281 138.234375 18.117188 138.234375 16.203125 Z M 138.234375 16.203125 "/>
<path style=" stroke:none;fill-rule:nonzero;fill:rgb(0%,18.039216%,42.745098%);fill-opacity:1;" d="M 156.007812 3.851562 L 156.007812 16.015625 C 156.007812 20.066406 153.902344 22.082031 149.707031 22.058594 C 145.539062 21.980469 143.453125 19.710938 143.453125 15.222656 C 143.453125 10.632812 145.234375 8.289062 148.816406 8.160156 C 150.496094 8.160156 151.792969 8.847656 152.65625 10.25 L 152.65625 5.949219 L 152.664062 5.566406 C 153.78125 3.894531 156.007812 3.851562 156.007812 3.851562 Z M 146.9375 15.070312 C 146.914062 17.796875 147.828125 19.175781 149.757812 19.175781 C 151.691406 19.175781 152.65625 17.796875 152.65625 15.070312 C 152.578125 12.46875 151.640625 11.191406 149.8125 11.191406 C 147.980469 11.191406 147.039062 12.46875 146.9375 15.070312 Z M 146.9375 15.070312 "/>
<path style=" stroke:none;fill-rule:nonzero;fill:rgb(0%,18.039216%,42.745098%);fill-opacity:1;" d="M 95.820312 23.957031 L 96.703125 23.957031 L 96.703125 41.824219 L 93.324219 41.824219 L 93.324219 26.144531 C 93.324219 25.632812 94.375 23.957031 95.820312 23.957031 Z M 95.820312 23.957031 "/>
<path style=" stroke:none;fill-rule:nonzero;fill:rgb(0%,18.039216%,42.745098%);fill-opacity:1;" d="M 114.234375 27.925781 C 112.558594 27.925781 111.289062 28.613281 110.425781 30.019531 L 110.425781 23.957031 L 110.042969 23.957031 C 108.359375 23.976562 107.472656 24.882812 107.046875 25.621094 L 107.046875 25.503906 L 107.046875 35.785156 C 107.046875 39.835938 109.15625 41.855469 113.347656 41.828125 C 117.515625 41.75 119.597656 39.480469 119.597656 34.992188 C 119.597656 30.402344 117.820312 28.054688 114.234375 27.925781 Z M 113.246094 38.941406 C 111.3125 38.941406 110.398438 37.566406 110.425781 34.835938 C 110.527344 32.234375 111.46875 30.960938 113.296875 30.960938 C 115.128906 30.960938 116.070312 32.234375 116.144531 34.835938 C 116.140625 37.566406 115.175781 38.941406 113.246094 38.941406 Z M 113.246094 38.941406 "/>
<path style=" stroke:none;fill-rule:nonzero;fill:rgb(0%,18.039216%,42.745098%);fill-opacity:1;" d="M 96.488281 18.464844 C 97.027344 18.988281 97.808594 19.25 98.820312 19.25 C 99.546875 19.25 100.171875 19.066406 100.695312 18.703125 C 101.21875 18.339844 101.539062 17.953125 101.65625 17.546875 L 104.824219 17.546875 C 104.320312 19.125 103.539062 20.25 102.496094 20.929688 C 101.445312 21.609375 100.179688 21.945312 98.695312 21.945312 C 97.664062 21.945312 96.734375 21.78125 95.90625 21.449219 C 95.078125 21.117188 94.378906 20.648438 93.804688 20.039062 C 93.230469 19.425781 92.785156 18.699219 92.476562 17.851562 C 92.160156 17.003906 92.007812 16.070312 92.007812 15.054688 C 92.007812 14.070312 92.167969 13.15625 92.488281 12.308594 C 92.8125 11.460938 93.265625 10.726562 93.855469 10.109375 C 94.449219 9.492188 95.152344 9.003906 95.972656 8.648438 C 96.792969 8.292969 97.699219 8.117188 98.695312 8.117188 C 99.8125 8.117188 100.78125 8.332031 101.609375 8.765625 C 102.4375 9.195312 103.117188 9.777344 103.648438 10.507812 C 104.179688 11.238281 104.566406 12.066406 104.804688 13 C 105.039062 13.933594 105.125 14.90625 105.054688 15.921875 L 95.605469 15.921875 C 95.652344 17.089844 95.949219 17.9375 96.488281 18.464844 Z M 100.558594 11.546875 C 100.125 11.074219 99.46875 10.835938 98.59375 10.835938 C 98.015625 10.835938 97.542969 10.933594 97.160156 11.128906 C 96.78125 11.324219 96.476562 11.566406 96.25 11.851562 C 96.023438 12.140625 95.863281 12.445312 95.769531 12.765625 C 95.675781 13.089844 95.621094 13.375 95.605469 13.628906 L 101.457031 13.628906 C 101.285156 12.714844 100.988281 12.019531 100.558594 11.546875 Z M 100.558594 11.546875 "/>
<path style=" stroke:none;fill-rule:nonzero;fill:rgb(0%,18.039216%,42.745098%);fill-opacity:1;" d="M 122.410156 10.792969 C 121.832031 10.792969 121.34375 10.925781 120.953125 11.191406 C 120.558594 11.453125 120.242188 11.796875 119.992188 12.21875 C 119.746094 12.636719 119.570312 13.097656 119.46875 13.601562 C 119.367188 14.109375 119.3125 14.609375 119.3125 15.105469 C 119.3125 15.585938 119.367188 16.070312 119.46875 16.570312 C 119.570312 17.066406 119.738281 17.515625 119.964844 17.917969 C 120.195312 18.320312 120.507812 18.648438 120.898438 18.90625 C 121.292969 19.164062 121.769531 19.292969 122.332031 19.292969 C 123.203125 19.292969 123.871094 19.050781 124.339844 18.558594 C 124.808594 18.070312 125.101562 17.417969 125.222656 16.597656 L 128.730469 16.597656 C 128.492188 18.359375 127.808594 19.703125 126.683594 20.628906 C 125.558594 21.554688 124.117188 22.015625 122.355469 22.015625 C 121.367188 22.015625 120.457031 21.847656 119.632812 21.515625 C 118.804688 21.179688 118.101562 20.714844 117.523438 20.113281 C 116.941406 19.515625 116.488281 18.800781 116.164062 17.96875 C 115.839844 17.136719 115.679688 16.226562 115.679688 15.234375 C 115.679688 14.207031 115.828125 13.253906 116.125 12.371094 C 116.425781 11.492188 116.863281 10.726562 117.445312 10.085938 C 118.027344 9.441406 118.734375 8.941406 119.570312 8.582031 C 120.40625 8.222656 121.359375 8.042969 122.4375 8.042969 C 123.222656 8.042969 123.976562 8.144531 124.703125 8.355469 C 125.425781 8.558594 126.074219 8.871094 126.648438 9.289062 C 127.21875 9.710938 127.683594 10.230469 128.042969 10.855469 C 128.398438 11.480469 128.605469 12.222656 128.65625 13.074219 L 125.097656 13.074219 C 124.859375 11.554688 123.964844 10.792969 122.410156 10.792969 Z M 122.410156 10.792969 "/>
<path style=" stroke:none;fill-rule:nonzero;fill:rgb(0%,18.039216%,42.745098%);fill-opacity:1;" d="M 158.613281 12.167969 C 158.9375 11.304688 159.394531 10.566406 159.992188 9.957031 C 160.589844 9.351562 161.304688 8.878906 162.140625 8.546875 C 162.980469 8.210938 163.917969 8.046875 164.957031 8.046875 C 165.996094 8.046875 166.941406 8.210938 167.785156 8.546875 C 168.632812 8.882812 169.351562 9.351562 169.949219 9.957031 C 170.546875 10.566406 171.007812 11.304688 171.332031 12.167969 C 171.65625 13.03125 171.816406 13.996094 171.816406 15.054688 C 171.816406 16.117188 171.65625 17.078125 171.332031 17.933594 C 171.007812 18.789062 170.546875 19.519531 169.949219 20.128906 C 169.351562 20.734375 168.632812 21.203125 167.785156 21.527344 C 166.941406 21.855469 165.996094 22.015625 164.957031 22.015625 C 163.917969 22.015625 162.980469 21.855469 162.140625 21.527344 C 161.304688 21.203125 160.589844 20.734375 159.992188 20.128906 C 159.394531 19.519531 158.9375 18.789062 158.613281 17.933594 C 158.289062 17.078125 158.125 16.117188 158.125 15.054688 C 158.125 13.996094 158.289062 13.03125 158.613281 12.167969 Z M 161.910156 16.609375 C 162.011719 17.117188 162.1875 17.570312 162.4375 17.972656 C 162.683594 18.375 163.011719 18.695312 163.421875 18.9375 C 163.832031 19.175781 164.34375 19.292969 164.957031 19.292969 C 165.570312 19.292969 166.089844 19.175781 166.507812 18.9375 C 166.925781 18.695312 167.257812 18.375 167.503906 17.972656 C 167.753906 17.570312 167.929688 17.117188 168.03125 16.609375 C 168.132812 16.105469 168.183594 15.589844 168.183594 15.054688 C 168.183594 14.527344 168.132812 14.003906 168.03125 13.488281 C 167.929688 12.976562 167.753906 12.523438 167.503906 12.128906 C 167.257812 11.734375 166.925781 11.414062 166.507812 11.164062 C 166.089844 10.917969 165.574219 10.792969 164.957031 10.792969 C 164.34375 10.792969 163.832031 10.917969 163.421875 11.164062 C 163.011719 11.414062 162.683594 11.734375 162.4375 12.128906 C 162.1875 12.523438 162.011719 12.976562 161.910156 13.488281 C 161.808594 14.003906 161.757812 14.527344 161.757812 15.054688 C 161.761719 15.585938 161.808594 16.105469 161.910156 16.609375 Z M 161.910156 16.609375 "/>
<path style=" stroke:none;fill-rule:nonzero;fill:rgb(0%,18.039216%,42.745098%);fill-opacity:1;" d="M 121.585938 34.824219 C 121.6875 30.464844 123.835938 28.039062 128.332031 28.039062 L 129.355469 28.039062 L 129.355469 31.558594 L 127.785156 31.589844 C 125.902344 31.589844 125.019531 32.808594 125.019531 34.773438 L 125.019531 41.789062 L 121.585938 41.789062 Z M 121.585938 34.824219 "/>
<path style=" stroke:none;fill-rule:nonzero;fill:rgb(0%,18.039216%,42.745098%);fill-opacity:1;" d="M 134.703125 38.347656 C 135.242188 38.871094 136.019531 39.132812 137.03125 39.132812 C 137.757812 39.132812 138.382812 38.953125 138.90625 38.585938 C 139.429688 38.222656 139.75 37.835938 139.871094 37.429688 L 143.035156 37.429688 C 142.53125 39.007812 141.75 40.132812 140.707031 40.8125 C 139.65625 41.492188 138.390625 41.828125 136.90625 41.828125 C 135.875 41.828125 134.945312 41.664062 134.117188 41.335938 C 133.289062 41.003906 132.589844 40.535156 132.015625 39.921875 C 131.441406 39.3125 130.996094 38.582031 130.6875 37.734375 C 130.371094 36.886719 130.21875 35.957031 130.21875 34.9375 C 130.21875 33.957031 130.378906 33.042969 130.699219 32.195312 C 131.023438 31.347656 131.476562 30.613281 132.066406 29.996094 C 132.660156 29.378906 133.363281 28.890625 134.183594 28.535156 C 135.003906 28.179688 135.910156 28 136.910156 28 C 138.023438 28 138.996094 28.21875 139.824219 28.652344 C 140.652344 29.082031 141.332031 29.664062 141.863281 30.394531 C 142.394531 31.121094 142.777344 31.953125 143.015625 32.882812 C 143.25 33.816406 143.332031 34.792969 143.269531 35.808594 L 133.816406 35.808594 C 133.863281 36.972656 134.160156 37.820312 134.703125 38.347656 Z M 138.769531 31.429688 C 138.335938 30.957031 137.683594 30.71875 136.804688 30.71875 C 136.230469 30.71875 135.753906 30.816406 135.371094 31.011719 C 134.992188 31.207031 134.6875 31.449219 134.460938 31.734375 C 134.234375 32.023438 134.074219 32.328125 133.980469 32.652344 C 133.886719 32.976562 133.832031 33.261719 133.816406 33.515625 L 139.667969 33.515625 C 139.496094 32.601562 139.199219 31.90625 138.769531 31.429688 Z M 138.769531 31.429688 "/>
<path style=" stroke:none;fill-rule:nonzero;fill:rgb(0%,18.039216%,42.745098%);fill-opacity:1;" d="M 100.332031 23.957031 L 103.714844 23.957031 L 103.714844 27.050781 L 100.332031 27.050781 Z M 100.332031 23.957031 "/>
<path style=" stroke:none;fill-rule:nonzero;fill:rgb(0%,18.039216%,42.745098%);fill-opacity:1;" d="M 100.332031 28.601562 L 103.714844 28.601562 L 103.714844 41.824219 L 100.332031 41.824219 Z M 100.332031 28.601562 "/>
</g>
</svg>
