<?xml version="1.0" encoding="utf-8"?>
<!-- Generator: Adobe Illustrator 26.1.0, SVG Export Plug-In . SVG Version: 6.00 Build 0)  -->
<svg version="1.1" id="Capa_1" xmlns="http://www.w3.org/2000/svg" xmlns:xlink="http://www.w3.org/1999/xlink" x="0px" y="0px"
	 viewBox="0 0 58 41" style="enable-background:new 0 0 58 41;" xml:space="preserve">
<style type="text/css">
	.st0{fill:#002E6D;}
	.st1{fill:#FFE800;}
	.st2{fill:#FFFFFF;}
</style>
<g>
	<path class="st0" d="M58,19.5C58,9,45,0.5,29,0.5c-16,0-29,8.6-29,19.1c0,0.3,0,1,0,1.1c0,11.1,11.4,20.2,29,20.2
		c17.8,0,29-9,29-20.2C58,20.2,58,20,58,19.5z"/>
	<path class="st1" d="M56.9,19.5c0,9.9-12.5,17.9-27.9,17.9s-27.9-8-27.9-17.9C1.1,9.6,13.6,1.6,29,1.6S56.9,9.6,56.9,19.5z"/>
	<path class="st2" d="M19.7,13.9c0,0-0.3,0.3-0.1,0.5c0.4,0.6,1.8,0.9,3.2,0.6c0.8-0.2,1.9-1,2.9-1.8c1.1-0.9,2.2-1.8,3.3-2.1
		c1.2-0.4,1.9-0.2,2.4-0.1c0.5,0.2,1.2,0.5,2.2,1.3c1.9,1.4,9.6,8.2,10.9,9.3c1.1-0.5,5.8-2.5,12.3-4c-0.6-3.5-2.7-6.6-5.8-9.2
		c-4.4,1.9-9.8,2.8-15.1,0.2c0,0-2.9-1.4-5.7-1.3c-4.2,0.1-6,1.9-7.9,3.8L19.7,13.9z"/>
	<path class="st2" d="M44.2,22.3c-0.1-0.1-9-7.9-11.1-9.5c-1.2-0.9-1.8-1.1-2.5-1.2c-0.4,0-0.9,0-1.2,0.1c-0.9,0.3-2.2,1.1-3.3,2
		c-1.1,0.9-2.2,1.8-3.2,2c-1.3,0.3-2.8-0.1-3.5-0.5c-0.3-0.2-0.5-0.4-0.6-0.6c-0.3-0.6,0.2-1.1,0.3-1.2l2.5-2.7
		c0.3-0.3,0.6-0.6,0.9-0.9c-0.8,0.1-1.5,0.3-2.2,0.5c-0.9,0.3-1.8,0.5-2.6,0.5c-0.4,0-2.3-0.3-2.7-0.4c-2.2-0.6-4.2-1.2-7.1-2.6
		c-3.5,2.6-5.9,5.9-6.5,9.5c0.5,0.1,1.3,0.4,1.7,0.5c7.9,1.8,10.4,3.6,10.9,4c0.5-0.5,1.2-0.9,2-0.9c0.9,0,1.7,0.4,2.2,1.1
		c0.5-0.4,1.1-0.7,1.9-0.7c0.4,0,0.7,0.1,1.1,0.2c0.9,0.3,1.4,0.9,1.6,1.4c0.3-0.1,0.7-0.2,1.1-0.2c0.4,0,0.9,0.1,1.3,0.3
		c1.5,0.6,1.7,2.1,1.6,3.2c0.1,0,0.2,0,0.3,0c1.7,0,3.1,1.4,3.1,3.2c0,0.5-0.1,1-0.4,1.5c0.5,0.3,1.7,0.9,2.7,0.7
		c0.8-0.1,1.2-0.4,1.3-0.6c0.1-0.1,0.2-0.2,0.1-0.3l-2.2-2.5c0,0-0.4-0.3-0.2-0.5c0.1-0.1,0.4,0.1,0.5,0.2c1.1,1,2.5,2.4,2.5,2.4
		c0,0,0.1,0.2,0.6,0.3c0.4,0.1,1.2,0,1.8-0.4c0.1-0.1,0.3-0.3,0.4-0.4c0,0,0,0,0,0c0.6-0.7-0.1-1.5-0.1-1.5l-2.6-2.9
		c0,0-0.4-0.3-0.2-0.5c0.1-0.1,0.4,0.1,0.5,0.2c0.8,0.7,2,1.9,3.1,3c0.2,0.2,1.2,0.8,2.5-0.1c0.8-0.5,1-1.2,0.9-1.6
		c-0.1-0.6-0.6-1.1-0.6-1.1l-3.6-3.6c0,0-0.4-0.3-0.2-0.5c0.1-0.1,0.4,0.1,0.5,0.2c1.1,1,4.2,3.8,4.2,3.8c0,0,1.1,0.8,2.4-0.1
		c0.5-0.3,0.8-0.8,0.8-1.3C44.8,22.9,44.2,22.3,44.2,22.3z"/>
	<path class="st2" d="M26.8,26.9c-0.6,0-1.2,0.3-1.2,0.3c0,0,0-0.3,0.1-0.4c0.1-0.1,0.8-2.3-1-3.1c-1.4-0.6-2.2,0.1-2.5,0.4
		c-0.1,0.1-0.1,0.1-0.1,0c0-0.4-0.2-1.5-1.4-1.8c-1.7-0.5-2.8,0.7-3,1.1c-0.1-1-0.9-1.7-1.9-1.7c-1.1,0-1.9,0.9-2,2
		c0,1.1,0.9,2,1.9,2c0.5,0,1-0.2,1.3-0.5c0,0,0,0,0,0.1c-0.1,0.5-0.2,2.2,1.6,3c0.7,0.3,1.4,0.1,1.9-0.3c0.2-0.1,0.2-0.1,0.2,0.1
		c-0.1,0.5,0,1.4,1.4,2c1,0.4,1.6,0,2-0.4c0.2-0.2,0.2-0.1,0.2,0.1c0,1.3,1.1,2.3,2.4,2.3c1.4,0,2.5-1.1,2.5-2.5
		C29.3,28,28.2,26.9,26.8,26.9z"/>
	<path class="st0" d="M44.5,21.4c-2.8-2.4-9.1-8-10.8-9.3c-1-0.7-1.7-1.1-2.2-1.3c-0.3-0.1-0.6-0.2-1.1-0.2c-0.4,0-0.9,0.1-1.4,0.2
		c-1.1,0.4-2.2,1.2-3.3,2.1l-0.1,0c-1,0.8-2,1.6-2.8,1.8c-0.3,0.1-0.7,0.1-1,0.1c-0.9,0-1.7-0.3-2-0.6c-0.1-0.1,0-0.2,0.1-0.3l0,0
		l2.4-2.6c1.9-1.9,3.7-3.7,7.8-3.8c0.1,0,0.1,0,0.2,0c2.6,0,5.1,1.2,5.4,1.3c2.4,1.2,4.9,1.8,7.4,1.8c2.6,0,5.3-0.6,8.1-2
		c-0.3-0.3-0.6-0.5-1-0.8c-2.5,1.1-4.8,1.6-7.1,1.6c-2.3,0-4.7-0.6-6.9-1.7c-0.1-0.1-3-1.4-5.9-1.4c-0.1,0-0.2,0-0.2,0
		c-3.5,0.1-5.4,1.3-6.7,2.4c-1.3,0-2.4,0.3-3.4,0.6c-0.9,0.2-1.6,0.5-2.4,0.5c-0.3,0-0.8,0-0.9,0c-0.8,0-5.1-1.1-8.5-2.4
		C7.9,7.8,7.5,8,7.2,8.3c3.5,1.5,7.9,2.6,9.2,2.7c0.4,0,0.8,0.1,1.2,0.1c0.9,0,1.8-0.3,2.7-0.5c0.5-0.1,1.1-0.3,1.7-0.4
		c-0.2,0.2-0.3,0.3-0.5,0.5L19,13.3c-0.2,0.2-0.6,0.7-0.3,1.4c0.1,0.3,0.3,0.5,0.6,0.7c0.6,0.4,1.6,0.7,2.6,0.7c0.4,0,0.7,0,1-0.1
		c1-0.2,2.1-1.1,3.3-2c0.9-0.7,2.2-1.7,3.2-1.9c0.3-0.1,0.6-0.1,0.9-0.1c0.1,0,0.2,0,0.2,0c0.7,0.1,1.3,0.3,2.4,1.2
		c2,1.5,11,9.4,11.1,9.5c0,0,0.6,0.5,0.5,1.3c0,0.5-0.3,0.9-0.7,1.1c-0.4,0.2-0.8,0.4-1.2,0.4c-0.6,0-1-0.3-1-0.3
		c0,0-3.1-2.8-4.2-3.8c-0.2-0.1-0.4-0.3-0.5-0.3c-0.1,0-0.2,0-0.2,0.1c-0.2,0.2,0,0.5,0.3,0.7l3.6,3.6c0,0,0.4,0.4,0.5,1
		c0,0.6-0.3,1.1-0.9,1.5c-0.4,0.3-0.9,0.4-1.3,0.4c-0.5,0-0.9-0.3-1-0.3l-0.5-0.5c-0.9-0.9-1.9-1.9-2.6-2.5
		c-0.2-0.1-0.4-0.3-0.5-0.3c-0.1,0-0.2,0-0.2,0.1c-0.1,0.1-0.1,0.3,0.1,0.5c0.1,0.1,0.2,0.2,0.2,0.2l2.6,2.9c0,0,0.5,0.6,0.1,1.3
		l-0.1,0.1c-0.1,0.1-0.2,0.2-0.2,0.2c-0.4,0.4-1,0.4-1.3,0.4c-0.1,0-0.2,0-0.4,0c-0.3,0-0.4-0.1-0.5-0.2l0,0
		c-0.1-0.1-1.5-1.5-2.5-2.4c-0.1-0.1-0.3-0.3-0.5-0.3c-0.1,0-0.2,0-0.2,0.1c-0.2,0.2,0.1,0.6,0.2,0.7l2.2,2.5c0,0,0,0.1-0.1,0.2
		c-0.1,0.1-0.3,0.4-1.2,0.5c-0.1,0-0.2,0-0.3,0c-0.8,0-1.7-0.4-2.2-0.6c0.2-0.4,0.3-0.9,0.3-1.4c0-1.8-1.5-3.3-3.3-3.3
		c0,0-0.1,0-0.1,0c0.1-0.8-0.1-2.4-1.7-3.1c-0.5-0.2-0.9-0.3-1.4-0.3c-0.4,0-0.7,0.1-1,0.2c-0.3-0.7-0.9-1.1-1.6-1.4
		c-0.4-0.1-0.8-0.2-1.2-0.2c-0.7,0-1.3,0.2-1.9,0.6c-0.5-0.7-1.3-1.1-2.2-1.1c-0.7,0-1.5,0.3-2,0.8c-0.7-0.5-3.4-2.3-10.8-4
		c-0.4-0.1-1.2-0.3-1.7-0.5c-0.1,0.4-0.1,0.8-0.2,1.2c0,0,1.4,0.3,1.6,0.4c7.5,1.7,10,3.4,10.4,3.7C13,22.8,13,23.2,13,23.5
		c0,1.6,1.3,2.8,2.8,2.8c0.2,0,0.3,0,0.5,0c0.2,1.1,1,2,2.1,2.5c0.3,0.1,0.7,0.2,1,0.2c0.2,0,0.4,0,0.6-0.1c0.2,0.5,0.7,1.2,1.7,1.6
		c0.4,0.2,0.7,0.2,1.1,0.2c0.3,0,0.6-0.1,0.9-0.2c0.5,1.2,1.7,2.1,3.1,2.1c0.9,0,1.8-0.4,2.4-1c0.5,0.3,1.7,0.8,2.8,0.8
		c0.1,0,0.3,0,0.4,0c1.1-0.1,1.7-0.6,1.9-0.9c0-0.1,0.1-0.1,0.1-0.2c0.3,0.1,0.6,0.1,0.9,0.1c0.6,0,1.2-0.2,1.8-0.7
		c0.6-0.4,1-1,1.1-1.6c0,0,0,0,0,0c0.2,0,0.4,0.1,0.6,0.1c0.6,0,1.3-0.2,1.9-0.6c1.2-0.8,1.4-1.8,1.3-2.4c0.2,0,0.4,0.1,0.6,0.1
		c0.6,0,1.2-0.2,1.8-0.5c0.7-0.5,1.1-1.2,1.2-2c0-0.6-0.1-1.1-0.4-1.6c1.9-0.8,6.4-2.5,11.6-3.6c0-0.4-0.1-0.8-0.2-1.2
		C50.4,18.8,45.7,20.9,44.5,21.4z M26.8,31.6c-1.2,0-2.2-1-2.3-2.2c0-0.1,0-0.4-0.2-0.4c-0.1,0-0.2,0.1-0.3,0.1
		c-0.3,0.3-0.6,0.5-1.1,0.5c-0.2,0-0.5-0.1-0.7-0.2c-1.3-0.5-1.3-1.4-1.3-1.8c0-0.1,0-0.2,0-0.3l-0.1-0.1h-0.1c-0.1,0-0.1,0-0.2,0.1
		c-0.4,0.3-0.7,0.4-1.1,0.4c-0.2,0-0.4,0-0.6-0.1c-1.7-0.7-1.6-2.3-1.5-2.8c0-0.1,0-0.2-0.1-0.2l-0.1-0.1L17,24.8
		c-0.3,0.3-0.8,0.5-1.2,0.5c-1,0-1.8-0.8-1.8-1.8c0-1,0.8-1.8,1.8-1.8c0.9,0,1.6,0.7,1.7,1.5l0.1,0.5l0.3-0.4c0,0,0.7-1.1,2.1-1.1
		c0.2,0,0.5,0,0.8,0.1c1,0.3,1.2,1.3,1.3,1.7c0,0.2,0.2,0.2,0.2,0.2c0.1,0,0.2-0.1,0.2-0.1c0.2-0.2,0.6-0.6,1.3-0.6
		c0.3,0,0.6,0.1,1,0.2c1.7,0.7,0.9,2.8,0.9,2.9c-0.1,0.4-0.1,0.5,0,0.6l0.1,0h0c0.1,0,0.2,0,0.3-0.1c0.2-0.1,0.6-0.2,0.9-0.2
		c1.3,0,2.3,1,2.3,2.3C29.1,30.6,28.1,31.6,26.8,31.6z"/>
</g>
</svg>
