<?xml version="1.0" encoding="utf-8"?>
<!-- Generator: Adobe Illustrator 26.1.0, SVG Export Plug-In . SVG Version: 6.00 Build 0)  -->
<svg version="1.1" id="Capa_1" xmlns="http://www.w3.org/2000/svg" xmlns:xlink="http://www.w3.org/1999/xlink" x="0px" y="0px"
	 viewBox="0 0 114 19" style="enable-background:new 0 0 114 19;" xml:space="preserve">
<g>
	<path d="M12.7,12.5H4.2l8.4-9.7l0-0.1V1.2H1.3v2h8.1L1,13v1.5h11.7V12.5z"/>
	<path d="M15.8,12.7c0.6,0.6,1.4,1.1,2.2,1.5c0.9,0.4,1.8,0.6,2.8,0.6c1,0,1.9-0.2,2.8-0.6c0.8-0.3,1.6-0.9,2.2-1.5
		c1-1,1.6-2.2,1.9-3.6c0.3-1.3,0.1-2.7-0.4-4C27,4.4,26.5,3.6,25.9,3c-1-1-2.3-1.6-3.7-1.9c-1.4-0.3-2.8-0.1-4.1,0.4
		c-0.8,0.3-1.6,0.9-2.2,1.5c-0.6,0.6-1.1,1.4-1.5,2.2C14,6.1,13.9,7,13.9,7.9c0,0.9,0.2,1.8,0.5,2.7C14.7,11.4,15.2,12.1,15.8,12.7z
		 M20.8,3c0.6,0,1.3,0.1,1.8,0.4c1.1,0.5,2,1.4,2.5,2.6c0.2,0.6,0.4,1.2,0.4,1.9c0,0.6-0.1,1.3-0.4,1.9c-0.2,0.6-0.5,1.1-0.9,1.5
		c-0.4,0.4-0.9,0.8-1.4,1c-0.6,0.2-1.2,0.4-1.9,0.4c-0.6,0-1.3-0.1-1.8-0.4c-0.6-0.2-1-0.6-1.5-1c-0.4-0.4-0.7-1-1-1.5
		c-0.2-0.6-0.4-1.2-0.4-1.9c0-0.6,0.1-1.3,0.4-1.9c0.2-0.6,0.5-1.1,0.9-1.5c0.4-0.4,0.9-0.8,1.4-1C19.5,3.1,20.2,3,20.8,3z"/>
	<path d="M32.6,6.9c0-0.5,0.1-1.1,0.3-1.6c0.2-0.5,0.4-0.9,0.8-1.2c0.3-0.3,0.7-0.6,1.2-0.8c0.5-0.2,1-0.3,1.5-0.3
		c1.1,0,1.9,0.3,2.5,1c0.6,0.6,0.9,1.6,0.9,2.7v7.7H42V6.3c0-0.7-0.1-1.5-0.4-2.2c-0.2-0.6-0.6-1.2-1-1.7c-0.5-0.5-1-0.9-1.6-1.1
		C38.3,1.1,37.6,1,36.8,1c-1.2,0-2.1,0.3-2.9,0.8c-0.5,0.4-1,0.8-1.4,1.3V1.2h-2.3v13.2h2.3V6.9z"/>
	<path d="M45.6,13.7c0.5,0.4,1,0.6,1.6,0.8c0.6,0.2,1.2,0.3,1.8,0.3c1,0,2.1-0.2,3-0.7c0.6-0.3,1.1-0.7,1.5-1.2v1.6h2.3v-8
		c0-1.8-0.5-3.1-1.5-4c-1-0.9-2.4-1.4-4.2-1.4c-0.9,0-1.7,0.1-2.6,0.3c-0.8,0.2-1.5,0.5-2.2,0.8l-0.2,0.1l0.7,1.9l0.2-0.1
		c0.6-0.3,1.2-0.5,1.8-0.7c0.7-0.2,1.4-0.2,2-0.2c1.2,0,2.1,0.3,2.7,0.8c0.6,0.6,1,1.4,1,2.5v0.2c-0.5-0.1-1.1-0.2-1.6-0.3
		c-0.7-0.1-1.5-0.2-2.2-0.2c-0.8,0-1.6,0.1-2.3,0.3c-0.7,0.2-1.3,0.4-1.8,0.8c-0.5,0.4-0.9,0.8-1.2,1.4C44.2,9.2,44,9.9,44,10.5
		c0,0.6,0.1,1.3,0.4,1.8C44.8,12.9,45.2,13.3,45.6,13.7z M49.5,12.8c-0.4,0-0.8-0.1-1.2-0.2c-0.4-0.1-0.7-0.3-1-0.5
		c-0.3-0.2-0.5-0.5-0.7-0.7c-0.2-0.3-0.2-0.7-0.2-1c0-0.4,0.1-0.7,0.2-1c0.2-0.3,0.4-0.6,0.7-0.8C48,8.2,48.9,7.9,50,7.9
		c0.7,0,1.4,0.1,2.1,0.2c0.6,0.1,1.1,0.2,1.5,0.3v1.1c0,0.5-0.1,0.9-0.3,1.3c-0.2,0.4-0.5,0.8-0.9,1c-0.4,0.3-0.8,0.5-1.3,0.7
		C50.6,12.7,50.1,12.8,49.5,12.8L49.5,12.8z"/>
	<path d="M61.2,12.4c0.2,0.2,0.3,0.4,0.5,0.6c0.3,0.3,0.7,0.7,1.1,0.9c0.4,0.3,0.9,0.5,1.4,0.6c0.6,0.2,1.1,0.2,1.7,0.2
		c0.8,0,1.6-0.2,2.4-0.5c0.8-0.3,1.5-0.8,2.1-1.4c0.6-0.6,1.1-1.4,1.4-2.2c0.4-0.9,0.6-1.9,0.5-2.9c0-1-0.2-2-0.5-2.9
		c-0.3-0.8-0.8-1.5-1.5-2.2C69.3,1.6,67.7,1,66,1c-0.6,0-1.2,0.1-1.7,0.3c-0.5,0.2-1,0.4-1.4,0.6c-0.4,0.3-0.8,0.6-1.2,0.9
		c-0.2,0.2-0.4,0.4-0.6,0.6V1.2h-2.3v17.2h2.3V12.4z M62.5,11.3c-0.4-0.4-0.8-0.9-1-1.5c-0.3-0.6-0.4-1.3-0.4-2
		c0-0.7,0.1-1.3,0.4-1.9c0.2-0.6,0.6-1.1,1-1.5C63,4,63.5,3.6,64,3.4c0.5-0.2,1.1-0.3,1.7-0.3c0.6,0,1.2,0.1,1.7,0.3
		c0.5,0.2,1,0.5,1.4,1c0.4,0.4,0.7,0.9,1,1.5c0.2,0.6,0.4,1.3,0.3,2c0,0.7-0.1,1.4-0.4,2c-0.2,0.6-0.5,1.1-0.9,1.5
		c-0.4,0.4-0.9,0.7-1.4,0.9c-1.1,0.4-2.3,0.4-3.4,0C63.5,12,63,11.7,62.5,11.3z"/>
	<path d="M77.2,9.1c0-0.8,0.1-1.7,0.4-2.5c0.2-0.7,0.6-1.3,1.1-1.8c0.4-0.5,1-0.8,1.6-1.1c0.6-0.2,1.3-0.4,1.9-0.4h0.3V1h-0.2
		c-0.6,0-1.2,0.1-1.8,0.2C80,1.4,79.5,1.7,79,2c-0.5,0.3-0.9,0.7-1.3,1.2c-0.2,0.2-0.4,0.5-0.5,0.8V1.2h-2.3v13.2h2.3L77.2,9.1z"/>
	<path d="M95,3c-0.7-0.7-1.4-1.2-2.3-1.5c-0.9-0.4-1.8-0.5-2.7-0.5c-0.9,0-1.9,0.2-2.7,0.5C86.4,1.8,85.6,2.3,85,3
		c-0.6,0.6-1.1,1.4-1.5,2.2C83.2,6,83,7,83,7.9c0,0.9,0.2,1.8,0.5,2.7c0.3,0.8,0.8,1.6,1.5,2.2c0.6,0.6,1.4,1.1,2.2,1.5
		c0.9,0.4,1.8,0.6,2.8,0.6c1,0,1.9-0.2,2.8-0.6c0.8-0.3,1.6-0.9,2.2-1.5c1-1,1.6-2.2,1.9-3.5c0.3-1.3,0.1-2.7-0.4-4
		C96.2,4.4,95.7,3.6,95,3z M90,12.6c-0.6,0-1.3-0.1-1.8-0.4c-0.6-0.2-1-0.6-1.5-1c-0.4-0.4-0.7-1-1-1.5c-0.5-1.2-0.5-2.5,0-3.8
		c0.2-0.6,0.5-1.1,0.9-1.5c0.4-0.4,0.9-0.8,1.4-1C88.7,3.2,89.3,3,90,3c0.6,0,1.3,0.1,1.8,0.4c1.1,0.5,2,1.4,2.5,2.6
		c0.2,0.6,0.4,1.2,0.4,1.9c0,0.6-0.1,1.3-0.3,1.9c-0.2,0.6-0.5,1.1-0.9,1.5c-0.4,0.4-0.9,0.8-1.5,1C91.3,12.5,90.7,12.6,90,12.6z"/>
	<path d="M111,2.8c-1.2-1.1-2.8-1.8-4.4-1.8c-0.6,0-1.2,0.1-1.7,0.2c-0.5,0.2-1,0.4-1.4,0.6c-0.4,0.3-0.8,0.6-1.1,0.9
		c-0.2,0.2-0.4,0.4-0.6,0.6V1.2h-2.3v17.2h2.3v-6c0.2,0.2,0.3,0.4,0.5,0.6c0.3,0.3,0.7,0.6,1.1,0.9c0.4,0.3,0.9,0.5,1.4,0.6
		c0.6,0.2,1.1,0.2,1.7,0.2c0.8,0,1.6-0.2,2.4-0.5c0.8-0.3,1.5-0.8,2.1-1.4c0.6-0.6,1.1-1.4,1.4-2.2c0.4-0.9,0.6-1.9,0.5-2.9
		c0-1-0.2-2-0.5-2.9C112.1,4.1,111.6,3.4,111,2.8z M110.6,7.9c0,0.7-0.1,1.4-0.4,2c-0.2,0.6-0.5,1.1-0.9,1.5
		c-0.4,0.4-0.9,0.7-1.4,0.9c-1.1,0.4-2.3,0.4-3.4,0c-0.5-0.2-1-0.6-1.5-1c-0.4-0.4-0.8-0.9-1-1.5c-0.3-0.6-0.4-1.3-0.4-2
		c0-0.7,0.1-1.3,0.4-1.9c0.2-0.6,0.6-1.1,1-1.5c0.4-0.4,0.9-0.7,1.5-1c0.5-0.2,1.1-0.3,1.7-0.3c0.6,0,1.2,0.1,1.7,0.3
		c0.5,0.2,1,0.5,1.4,1c0.4,0.4,0.7,0.9,1,1.5C110.5,6.5,110.6,7.2,110.6,7.9z"/>
</g>
</svg>
