<?xml version="1.0" encoding="UTF-8"?>
<svg xmlns="http://www.w3.org/2000/svg" xmlns:xlink="http://www.w3.org/1999/xlink" width="27px" height="57px" viewBox="0 0 27 55" version="1.1">
<g id="surface1">
<path style=" stroke:none;fill-rule:nonzero;fill:rgb(93.72549%,31.764706%,14.117647%);fill-opacity:1;" d="M 12.300781 25.289062 C 12.300781 24.179688 12.300781 23.234375 12.300781 22.125 C 12.300781 21.652344 12.140625 21.496094 11.664062 21.335938 C 7.351562 19.914062 4.476562 15.804688 4.632812 11.0625 C 4.632812 6.636719 7.828125 2.6875 11.984375 1.421875 C 19.171875 -0.789062 26.039062 4.898438 25.558594 12.328125 C 25.242188 16.4375 22.367188 20.070312 18.371094 21.496094 C 18.050781 21.652344 17.894531 21.808594 17.894531 22.125 C 17.894531 23.707031 17.894531 25.289062 17.894531 27.027344 C 17.894531 27.34375 17.734375 27.5 17.574219 27.65625 C 15.976562 28.289062 14.539062 28.765625 12.941406 29.398438 C 12.460938 29.554688 12.460938 29.398438 12.460938 29.082031 C 12.300781 27.65625 12.300781 26.550781 12.300781 25.289062 Z M 15.175781 6.320312 C 12.140625 6.320312 9.746094 8.691406 9.746094 11.539062 C 9.746094 14.539062 12.140625 16.910156 15.015625 16.910156 C 17.894531 16.910156 20.289062 14.539062 20.289062 11.695312 C 20.449219 8.691406 18.050781 6.320312 15.175781 6.320312 Z M 15.175781 6.320312 "/>
<path style=" stroke:none;fill-rule:nonzero;fill:rgb(93.72549%,31.764706%,14.117647%);fill-opacity:1;" d="M 17.734375 37.929688 C 17.734375 38.089844 17.734375 38.089844 17.734375 38.246094 C 17.734375 40.460938 17.734375 42.671875 17.734375 44.886719 C 17.734375 45.199219 17.734375 45.359375 17.414062 45.359375 C 14.058594 46.625 10.542969 47.886719 7.191406 49.308594 C 7.03125 49.46875 6.871094 49.308594 6.550781 49.308594 C 5.113281 48.835938 3.835938 48.203125 2.398438 47.730469 C 2.238281 47.570312 2.078125 47.570312 2.078125 47.253906 C 2.078125 46.148438 2.078125 45.199219 2.078125 44.09375 C 2.078125 43.9375 2.078125 43.777344 2.398438 43.621094 C 7.511719 41.722656 12.460938 39.828125 17.574219 38.089844 C 17.574219 37.773438 17.734375 37.929688 17.734375 37.929688 Z M 17.734375 37.929688 "/>
<path style=" stroke:none;fill-rule:nonzero;fill:rgb(93.72549%,31.764706%,14.117647%);fill-opacity:1;" d="M 17.734375 32.558594 C 17.734375 33.664062 17.734375 34.769531 17.734375 35.875 C 17.734375 36.191406 17.574219 36.351562 17.414062 36.507812 C 14.058594 37.773438 10.863281 39.039062 7.511719 40.300781 C 7.351562 40.460938 7.03125 40.460938 6.871094 40.300781 C 5.433594 39.667969 3.996094 39.195312 2.558594 38.5625 C 2.238281 38.40625 2.238281 38.246094 2.238281 37.929688 C 2.238281 36.984375 2.238281 36.035156 2.238281 35.085938 C 2.238281 34.769531 2.398438 34.613281 2.558594 34.613281 C 7.511719 32.714844 12.460938 30.820312 17.414062 28.921875 C 17.734375 28.765625 17.894531 28.921875 17.894531 29.238281 C 17.734375 30.34375 17.734375 31.449219 17.734375 32.558594 Z M 17.734375 32.558594 "/>
<path style=" stroke:none;fill-rule:nonzero;fill:rgb(93.72549%,32.156863%,14.901961%);fill-opacity:1;" d="M 8.789062 50.101562 C 11.824219 48.996094 14.539062 47.886719 17.414062 46.78125 C 17.734375 46.625 17.734375 46.78125 17.734375 47.097656 C 17.734375 49.308594 17.734375 51.679688 17.734375 54.050781 C 14.699219 52.628906 11.824219 51.363281 8.789062 50.101562 Z M 8.789062 50.101562 "/>
</g>
</svg>
